<svg xmlns="http://www.w3.org/2000/svg" viewBox="0 0 899.93 181.56"><defs><style>.cls-1{fill:#9c5c8f;}.cls-1,.cls-2,.cls-3{fill-rule:evenodd;}.cls-2{fill:#fff;}</style></defs><title>Asset 1</title><g id="Layer_2" data-name="Layer 2"><g id="Layer_1-2" data-name="Layer 1"><path class="cls-1" d="M2.26,17.28A28.38,28.38,0,0,1,27.92,0q124,0,248,0a28.44,28.44,0,0,1,29,29c0,31.69.06,63.37,0,95.06-.06,14.32-12.57,27.1-26.88,27.49-30.15.13-60.31,0-90.46.06,4,10,8.15,19.95,12.2,29.94-18-9.89-35.74-20.13-53.8-29.81-39.66-.35-79.35,0-119-.2C12.62,151.15.16,138.38.08,124.09,0,93.07.08,62,0,31A31.85,31.85,0,0,1,2.26,17.28Z"/><path class="cls-2" d="M123.52,19.59c4.58-4.87,13.27-3.29,16.65,2.22a10.39,10.39,0,0,1,.52,9.83c-6.37,12.53-9,26.49-11.48,40.21-2.9,17.89-5.31,36-4.37,54.17.26,4.63-2,10.25-7,11.33-4.7,1-9-2-11.93-5.35-13.5-14.52-21.14-33.33-26.65-52.1-5.57,11-11.16,22-16.56,33.06C59,120.45,55,128.09,48.94,134c-2.55,2.53-6.86,4.82-10.15,2.22-4.95-4.33-6.17-11.23-8.27-17.16-8-27.49-12.49-55.82-17.12-84-1.06-4.7.91-10.33,5.6-12.21,3.79-1.42,8.64-1.62,11.87,1.17,2.25,2,2.87,5.12,3.29,8,3.25,21.83,7.12,43.59,12.39,65q13.55-25.68,27-51.41c1.34-2.51,2.94-5,5.4-6.59,3.29-2.11,8.17-2,10.92,1,2.31,2.42,3.08,5.79,3.72,9a230.87,230.87,0,0,0,11.62,41.63c2.28-20.24,5.07-40.73,12.46-59.84,1.67-3.85,3.14-7.92,5.84-11.19Zm50.76,10.84c9.72-1.19,20.21,2,26.83,9.43,5.4,6.11,8.43,14,9.45,22.06a67.77,67.77,0,0,1-7.42,40.15c-3.73,6.94-8.61,13.59-15.49,17.67-10.08,6.12-23.6,5.37-33.34-1.09-7.78-5.33-12.15-14.41-13.93-23.46-3.58-20.48,2.54-43.31,18-57.61a30,30,0,0,1,15.85-7.15Zm2,21.07c-4.67,1.55-7.62,5.83-10.13,9.81-6.29,10.13-8.11,23.49-3.05,34.51,1.33,2.9,3.47,5.95,6.84,6.56,3.58.59,6.91-1.46,9.52-3.69,5.75-4.93,8.61-12.34,10-19.61,1.56-8.28.76-17.45-4.1-24.54a8,8,0,0,0-9.08-3Zm76-21.05c9.5-1.18,19.81,1.75,26.46,8.84,6,6.42,9.17,15,10.08,23.64a67.72,67.72,0,0,1-7.33,38.76c-3.78,7.13-8.77,14-15.85,18.14-9.68,5.8-22.46,5.27-32-.45-6.48-3.9-10.79-10.56-13.27-17.56-6.8-21.41-1.06-46.6,14.61-62.76a30.63,30.63,0,0,1,17.35-8.61Zm2.06,21.08c-5.1,1.82-8.16,6.69-10.81,11.11-5.74,10.12-7.15,23.15-2,33.78,1.4,2.94,3.88,5.9,7.39,6.06,3.82.14,7.11-2.28,9.76-4.78C264.48,92,267.12,83.88,268,76c1-7.39-.28-15.33-4.58-21.53a8,8,0,0,0-9.13-2.93Z"/><path class="cls-3" d="M356.26,33.26a57.43,57.43,0,0,1,25.26.34c0,6.75,0,13.5,0,20.25-6.77-1.63-14.34-3.16-20.91,0C352.78,57.7,348.49,66.55,348.41,75c-.44,8.47,2.38,17.9,9.88,22.66,6.89,4.56,15.69,3.59,23.25,1.42,0,6.75,0,13.5,0,20.25a49.33,49.33,0,0,1-30.69-1.09,41.27,41.27,0,0,1-24.62-26.51,55.19,55.19,0,0,1-.86-28.21,41.69,41.69,0,0,1,30.91-30.31Zm60.92-1c10.2-1.14,21.3.43,29.54,7,8,6.17,11.92,16.12,13.3,25.84,1.4,10.64,1.09,21.71-2.2,32-2.8,8.73-8.66,16.8-17.1,20.77s-18.58,4.31-27.71,2.25A31,31,0,0,1,392.9,105c-5.81-10.21-6.87-22.33-6.42-33.85.48-9.94,3-20.3,9.67-28a32.3,32.3,0,0,1,21-10.93Zm3.14,19.36c-4.38,1.11-6.86,5.43-8,9.5-2.17,8-1.8,16.52-1.25,24.76.53,4.45,1,9.37,4.18,12.84,4.21,4.79,12.67,4.14,16.54-.76,2.56-3.14,3.22-7.28,3.81-11.16a78,78,0,0,0,0-20.92c-.74-4.15-1.89-8.53-4.94-11.63a10.8,10.8,0,0,0-10.35-2.63Zm400-18c8.66-2.27,17.84-1.94,26.55-.08.2,6.77,0,13.55.09,20.32-6.63-1.59-13.95-3.08-20.44-.22C819.1,57,814.57,65,814,73c-.92,9,1.55,19.26,9.45,24.5,6.92,4.76,15.89,3.83,23.55,1.61-.09,6.8.2,13.61-.16,20.4-10.66,2.77-22.27,2.4-32.43-2a41.35,41.35,0,0,1-23-26.66,55.17,55.17,0,0,1-.47-27.75,41.69,41.69,0,0,1,29.44-29.5Zm-346.88.67q14.46,0,28.94,0c3.49,15.64,6.81,31.33,9.71,47.09,2.76-15.83,6.47-31.47,10.2-47.09q14.84,0,29.68,0,5.76,42.46,11.47,84.93-11.35,0-22.7,0c-2.1-19.39-4-38.8-6.18-58.18C530,80.44,525.16,99.8,520.48,119.2c-5.16,0-10.33,0-15.49,0-4.95-19.42-9.82-38.87-14.81-58.28q-2.92,29.15-5.85,58.29c-7.23,0-14.47,0-21.7,0q5.4-42.46,10.84-84.92Zm103.8,0c9.65,0,19.3,0,29,0,3.48,15.62,6.77,31.28,9.69,47,2.8-15.8,6.47-31.43,10.21-47h29.56q5.75,42.46,11.46,84.93c-7.56,0-15.12,0-22.68,0-2.1-19.4-4.06-38.8-6.13-58.2-4.72,19.39-9.35,38.8-14.07,58.19-5.16,0-10.31,0-15.46,0Q601.39,90,594,60.87c-2,19.44-3.89,38.89-5.86,58.33q-10.86,0-21.71,0,5.42-42.46,10.84-84.93Zm96.34.28c15.49-.35,31,0,46.5-.15,0,6,0,12,0,18.08-7.82.09-15.64,0-23.46,0q0,7.77,0,15.54c6.77,0,13.54,0,20.31,0q0,8.81,0,17.59c-6.77,0-13.54,0-20.31,0q0,7.77,0,15.55c7.85,0,15.71,0,23.56,0q0,9,0,18.09H673.75c-.1-28.26.17-56.53-.14-84.78Zm53.2-.28c9.7,0,19.4-.08,29.1.06,9.14.29,18.83,2.57,25.65,9,6.16,5.73,8.29,15.08,5.9,23A23.71,23.71,0,0,1,774.64,81c6.07,12.75,12.2,25.46,18.27,38.2h-24.2c-6.33-13-12.46-26.11-18.87-39.07-.16,13,0,26-.07,39.06q-11.49,0-23,0,0-42.46,0-84.93ZM749.66,50.6q0,10.12,0,20.27c4.15-.29,8.66-.45,12.19-3,4.06-2.93,3.62-9.2,1.06-13-3.17-3.88-8.68-4-13.25-4.33ZM853.42,34.29c15.47,0,30.94,0,46.41,0,0,6,0,12.08,0,18.12H876.28q0,7.75,0,15.52c6.77,0,13.54,0,20.31,0q0,8.81,0,17.62H876.29c0,5.18,0,10.36,0,15.55,7.88,0,15.76,0,23.65,0q0,9,0,18.1H853.44q0-42.45,0-84.91Z"/></g></g></svg>